<svg version="1.0" xmlns="http://www.w3.org/2000/svg" width="32.000000pt" height="32.000000pt"
    viewBox="0 0 32.000000 32.000000" preserveAspectRatio="xMidYMid meet">
    <g transform="translate(0.000000,32.000000) scale(0.100000,-0.100000)" fill="#000000" stroke="none">
        <path d="M0 160 l0 -160 160 0 160 0 0 160 0 160 -160 0 -160 0 0 -160z m224
    32 c14 -29 14 -35 0 -65 -14 -30 -19 -32 -64 -32 -45 0 -50 2 -64 33 -14 29
    -14 35 0 65 14 30 19 32 64 32 45 0 50 -2 64 -33z m-149 6 c-4 -13 -7 -30 -7
    -38 0 -8 3 -25 7 -37 10 -33 -8 -28 -28 7 -17 29 -17 31 0 60 20 35 38 40 28
    8z m198 -8 c17 -29 17 -31 0 -60 -20 -35 -38 -40 -28 -7 4 12 7 29 7 37 0 8
    -3 25 -7 38 -10 32 8 27 28 -8z" />
        <path d="M124 185 c-15 -23 -15 -27 0 -50 21 -32 51 -32 72 0 15 23 15 27 0
    50 -9 14 -25 25 -36 25 -11 0 -27 -11 -36 -25z" />
    </g>
</svg>