<svg width="1080" height="596" viewBox="0 0 1080 596" fill="none" xmlns="http://www.w3.org/2000/svg">
<path d="M281.063 148.93L195.549 297.38L281.063 445.349L366.578 593.318L537.607 594.759L709.116 595.72L793.67 449.672C840.271 368.962 878.224 300.262 878.224 296.899C878.224 293.536 840.751 225.797 794.631 146.528L711.519 2.40222L539.048 1.44135L366.578 0.00012207L281.063 148.93ZM695.665 22.5798C695.665 24.9819 691.341 33.6295 686.056 41.7966L676.448 57.6504H538.087H399.727L388.677 38.4337L378.108 19.2169H536.646C624.082 19.2169 695.665 20.6581 695.665 22.5798ZM713.44 196.492L771.571 296.899L712.96 398.268L654.829 499.636H538.568H422.787L364.176 398.268L305.564 297.38L337.753 241.17C355.528 210.424 381.951 164.784 396.364 140.282L422.306 96.0839H539.048H655.79L713.44 196.492ZM687.498 554.884C691.821 564.492 695.665 573.14 695.665 574.101C695.665 575.542 624.082 576.503 537.126 576.503H378.588L388.197 557.286L397.805 538.069H538.568H679.33L687.498 554.884Z" fill="black"/>
<path d="M75.4438 161.901C34.6082 232.523 0.498404 291.615 0.0179851 294.017C-1.42327 297.38 84.0913 449.672 136.457 537.109L151.83 563.051L172.008 527.5C183.538 508.284 195.549 487.145 199.392 480.419C206.118 468.889 204.196 464.565 157.115 382.414C108.593 298.821 107.632 296.419 114.838 283.928C119.162 277.202 141.261 238.768 164.321 198.894L206.118 125.87L181.136 82.1519C167.684 58.1309 154.713 37.4729 152.791 36.0316C150.87 35.0708 116.279 91.7602 75.4438 161.901Z" fill="black"/>
<path d="M898.882 77.3474C884.95 101.368 873.42 122.987 873.42 125.87C873.42 128.752 895.039 168.627 921.462 214.267L969.984 296.899L921.462 380.492C895.039 426.612 873.42 466.487 873.42 468.889C873.42 471.291 884.95 493.39 899.362 518.372C924.825 562.571 925.305 563.051 932.511 552.001C936.355 545.756 970.945 485.704 1009.86 418.925L1080 297.379L1004.09 165.744C962.778 93.2012 927.707 34.1096 926.266 34.1096C924.825 33.6292 912.334 53.3264 898.882 77.3474Z" fill="black"/>
</svg>
