<svg width="2954" height="788" viewBox="0 0 2954 788" fill="none" xmlns="http://www.w3.org/2000/svg">
<path d="M186.074 295L129.46 393.182L186.074 491.047L242.688 588.911L355.916 589.865L469.461 590.5L525.439 493.906C556.29 440.526 581.417 395.089 581.417 392.865C581.417 390.64 556.609 345.839 526.075 293.411L471.052 198.089L356.87 197.453L242.688 196.5L186.074 295ZM460.556 211.434C460.556 213.023 457.693 218.742 454.195 224.144L447.834 234.629H356.234H264.634L257.319 221.919L250.321 209.21H355.28C413.166 209.21 460.556 210.163 460.556 211.434ZM472.324 326.456L510.809 392.865L472.006 459.908L433.521 526.952H356.552H279.901L241.098 459.908L202.295 393.182L223.605 356.006C235.373 335.671 252.866 305.485 262.408 289.281L279.582 260.048H356.87H434.157L472.324 326.456ZM455.149 563.492C458.011 569.847 460.556 575.566 460.556 576.202C460.556 577.155 413.166 577.79 355.598 577.79H250.639L257.001 565.081L263.362 552.371H356.552H449.742L455.149 563.492Z" fill="white"/>
<path d="M49.9466 303.579C22.9119 350.287 0.329962 389.369 0.0119068 390.958C-0.942259 393.182 55.6716 493.906 90.3396 551.735L100.517 568.894L113.876 545.381C121.509 532.671 129.46 518.69 132.005 514.242C136.458 506.616 135.185 503.756 104.016 449.423C71.8924 394.136 71.2563 392.547 76.0271 384.286C78.8896 379.837 93.5201 354.418 108.787 328.045L136.458 279.748L119.919 250.834C111.013 234.947 102.426 221.284 101.153 220.331C99.8812 219.695 76.9813 257.189 49.9466 303.579Z" fill="white"/>
<path d="M595.093 247.657C585.87 263.544 578.236 277.842 578.236 279.749C578.236 281.655 592.549 308.028 610.042 338.213L642.165 392.865L610.042 448.152C592.549 478.655 578.236 505.028 578.236 506.616C578.236 508.205 585.87 522.821 595.411 539.344C612.268 568.576 612.586 568.894 617.357 561.586C619.902 557.455 642.802 517.737 668.564 473.571L715 393.183L664.747 306.121C637.395 258.142 614.177 219.06 613.222 219.06C612.268 218.742 603.999 231.77 595.093 247.657Z" fill="white"/>
<rect width="30" height="738" transform="translate(751 24.5)" fill="white"/>
<path d="M936.897 523.5V221.22H981.337L1087.38 418.78L1193.42 221.22H1237.86V523.5H1193.42V308.34L1087.38 505.9L981.337 308.34V523.5H936.897ZM1547.35 523.5L1520.95 461.9H1363.43L1337.03 523.5H1287.75L1417.55 221.22H1466.83L1596.63 523.5H1547.35ZM1380.59 421.86H1503.79L1442.19 278.42L1380.59 421.86ZM1646.31 523.5V221.22H1750.59C1848.27 221.22 1917.79 283.7 1917.79 372.14C1917.79 460.58 1848.27 523.5 1750.59 523.5H1646.31ZM1690.75 483.02H1753.23C1823.19 483.02 1872.03 437.26 1872.03 372.14C1872.03 307.46 1823.19 261.7 1753.23 261.7H1690.75V483.02ZM1976.63 523.5V221.22H2021.07V523.5H1976.63ZM2092.76 523.5V221.22H2137.2L2311 450.46V221.22H2355.44V523.5H2311L2137.2 294.26V523.5H2092.76ZM2452.89 528.78C2436.17 528.78 2423.41 515.14 2423.41 498.86C2423.41 483.9 2436.17 470.26 2452.89 470.26C2468.73 470.26 2481.49 483.9 2481.49 498.86C2481.49 515.14 2468.73 528.78 2452.89 528.78ZM2543.82 523.5V221.22H2588.26V523.5H2543.82ZM2892.7 523.5L2866.3 461.9H2708.78L2682.38 523.5H2633.1L2762.9 221.22H2812.18L2941.98 523.5H2892.7ZM2725.94 421.86H2849.14L2787.54 278.42L2725.94 421.86Z" fill="white"/>
</svg>
